PathFileType	4	(X/Y/Z)	./resultDataOpenSim/trcMotMarkerGrf/sub09/qtm-01-06.trc
DataRate	CameraRate	NumFrames	NumMarkers	Units	OrigDataRate	OrigDataStartFrame	OrigNumFrames
250.000000	250.000000	10	24	m	250.000000	302	482
Frame#	Time	L.Toe.Tip			R.Toe.Tip			L.Ankle.Lat			R.Ankle.Lat			L.Ankle.Med			R.Ankle.Med			L.Heel			R.Heel			L.Knee.Lat			R.Knee.Lat			L.Knee.Med			R.Knee.Med			L.Thigh.Upper			R.Thigh.Upper			L.ASIS			R.ASIS			V.Sacral			L.Acromium			R.Acromium			C7			L.Elbow			R.Elbow			L.Wrist.Lat			R.Wrist.Lat
		X1	Y1	Z1	X2	Y2	Z2	X3	Y3	Z3	X4	Y4	Z4	X5	Y5	Z5	X6	Y6	Z6	X7	Y7	Z7	X8	Y8	Z8	X9	Y9	Z9	X10	Y10	Z10	X11	Y11	Z11	X12	Y12	Z12	X13	Y13	Z13	X14	Y14	Z14	X15	Y15	Z15	X16	Y16	Z16	X17	Y17	Z17	X18	Y18	Z18	X19	Y19	Z19	X20	Y20	Z20	X21	Y21	Z21	X22	Y22	Z22	X23	Y23	Z23	X24	Y24	Z24

302	1.204	0.17441536	0.044671538	-0.0038809986	1.0052048	0.040450451	0.071782683	0.095684138	0.16906113	-0.065951384	0.85573642	0.05245654	0.10875845	0.13136527	0.17161191	0.024775106	0.85966398	0.090872077	0.017213374	0.02488981	0.19454761	-0.018289123	0.7876087	0.031174762	0.060863475	0.41959484	0.44331861	-0.11471917	0.82810986	0.51039957	0.16367715	0.42660904	0.43401565	0.010848043	0.80558793	0.4912824	0.041102601	0.53765792	0.8360895	-0.13723167	0.61451017	0.84919228	0.2273171	0.64651812	0.91383203	-0.098661321	0.67751755	0.93611749	0.13982678	0.49672719	0.97643441	0.043021096	0.63539718	1.3782079	-0.1300976	0.61675966	1.3846577	0.20119259	0.55918366	1.4305451	0.034642822	0.53350804	1.0145293	-0.19112839	0.46686346	1.0606765	0.28709713	0.74602511	0.84904268	-0.178743	0.57163431	0.81032809	0.32428298
303	1.208	0.17641079	0.046121266	-0.00438607	1.0053827	0.040227048	0.071806162	0.10181528	0.17340501	-0.067139319	0.85589544	0.052556733	0.10889966	0.13808234	0.17501805	0.023280088	0.85961853	0.091088038	0.017429773	0.032041269	0.20083047	-0.019230574	0.78766107	0.031234919	0.061176413	0.43006201	0.44216403	-0.11582337	0.83550546	0.51088368	0.16345183	0.43817539	0.43185201	0.0091907581	0.81301302	0.49325433	0.040832789	0.54535319	0.83531401	-0.13662885	0.6210558	0.85027337	0.22800505	0.65345223	0.91362896	-0.097846231	0.68417915	0.9371191	0.14051926	0.50347517	0.97645427	0.043219895	0.64204809	1.3786069	-0.12986347	0.62398495	1.3846651	0.20148784	0.56607983	1.4306774	0.035090931	0.53944497	1.0152862	-0.19065017	0.47459017	1.0605274	0.28738456	0.75047348	0.84790115	-0.17907233	0.57957816	0.81018381	0.32438697
304	1.212	0.17863075	0.047745697	-0.0050348959	1.0055119	0.040070067	0.071855199	0.10826741	0.17788663	-0.068304233	0.85605677	0.052610731	0.10897777	0.14499181	0.17849147	0.021912355	0.85971839	0.091464901	0.017606622	0.039540287	0.20721249	-0.020232232	0.78771258	0.031307688	0.061356616	0.44059868	0.44098235	-0.11681506	0.84244789	0.51129563	0.16344262	0.4498903	0.42949547	0.0077835415	0.82029077	0.49504267	0.040647883	0.55297617	0.83451609	-0.13617639	0.62741826	0.85131369	0.22871087	0.66027855	0.9135344	-0.097019295	0.69084927	0.9381019	0.14123666	0.51001923	0.97650794	0.043404814	0.64871933	1.3790593	-0.12963023	0.63120307	1.3847416	0.20176633	0.57293692	1.430869	0.035491079	0.54534694	1.0161171	-0.19019211	0.48234892	1.0604482	0.28769088	0.75484005	0.84681109	-0.1794317	0.58758691	0.81011208	0.32447649
305	1.216	0.18110015	0.049525781	-0.0058209518	1.0056263	0.03995081	0.071817017	0.11506541	0.18243673	-0.069420872	0.85612643	0.052650435	0.1089736	0.15208073	0.18199855	0.020617	0.86004484	0.091866231	0.017667768	0.047403091	0.2136483	-0.021335763	0.78778043	0.031380879	0.061393458	0.45121496	0.43977129	-0.11765765	0.84896986	0.51160122	0.16359396	0.46183447	0.4269405	0.0066264912	0.82733661	0.49647779	0.040531819	0.56050759	0.83374297	-0.13585871	0.63364982	0.85229271	0.22941098	0.66699106	0.91352947	-0.096199056	0.69753476	0.93902386	0.14194553	0.5163228	0.97662062	0.043592755	0.65540491	1.3795474	-0.12938925	0.63840222	1.3848731	0.20202186	0.57973776	1.4311108	0.035850304	0.55120916	1.0170089	-0.18976729	0.49013319	1.0604205	0.28805246	0.75911815	0.84577352	-0.17981268	0.59563965	0.81010305	0.32455047
306	1.22	0.18386363	0.051451155	-0.0067357596	1.0057448	0.039843218	0.07165489	0.12223756	0.18699226	-0.070468973	0.85614147	0.052650696	0.10888701	0.15936471	0.18552515	0.019370555	0.86055445	0.09217181	0.01760978	0.055640185	0.22009113	-0.022556766	0.78786331	0.031433097	0.061322028	0.46196791	0.43852326	-0.11838692	0.85511899	0.51175298	0.16379283	0.47397732	0.4243363	0.0056470617	0.83407054	0.49747974	0.040438972	0.56791264	0.83305315	-0.13562037	0.63979436	0.85319332	0.23006747	0.67359201	0.91361355	-0.09539493	0.70423313	0.93987249	0.14262668	0.52247697	0.97680622	0.043815012	0.66209018	1.3800567	-0.12913992	0.64557936	1.3850575	0.20224983	0.58650336	1.431395	0.036175576	0.55702967	1.0179552	-0.18938724	0.49792981	1.0604034	0.28855818	0.76331268	0.84478634	-0.18021784	0.60371245	0.81014888	0.32459807
307	1.224	0.18697828	0.053520328	-0.0077707154	1.0058653	0.039734759	0.071459178	0.12981386	0.19152349	-0.071459768	0.85620447	0.052576048	0.10874182	0.16689941	0.18907529	0.018220657	0.86111356	0.092329514	0.017477121	0.064254572	0.22650683	-0.023870879	0.78794575	0.031451976	0.061196391	0.47290325	0.43721773	-0.11906803	0.86094244	0.51171376	0.16396915	0.48617651	0.42187544	0.0048012603	0.84043822	0.49806542	0.040327333	0.5751565	0.83248058	-0.13541387	0.64589473	0.85400732	0.23064907	0.68008353	0.91379592	-0.094618319	0.71093307	0.94066161	0.14326901	0.52865843	0.97705136	0.044110841	0.66876873	1.3805806	-0.12889566	0.65272955	1.3853037	0.2024523	0.59327434	1.431715	0.036465676	0.56281347	1.0189505	-0.18905422	0.50573883	1.0603751	0.28930159	0.76743809	0.84384936	-0.18065699	0.61178899	0.81025015	0.32460595
308	1.228	0.1905256	0.055747268	-0.0089041023	1.0059702	0.039627556	0.071339021	0.13781242	0.19602526	-0.072428018	0.85631625	0.052445898	0.10861517	0.17472583	0.19266445	0.017210426	0.86159993	0.092351163	0.017319615	0.073229375	0.23286215	-0.025227729	0.78800857	0.031443162	0.061066521	0.48403778	0.43584682	-0.11974067	0.86649054	0.51147782	0.16413095	0.49833139	0.4196696	0.0040625618	0.84644725	0.49831508	0.040182416	0.58222289	0.83203467	-0.13520371	0.65200111	0.85473663	0.23114503	0.68646489	0.91408045	-0.093888451	0.71761657	0.94141081	0.1438637	0.53495909	0.97734244	0.044497569	0.6754587	1.3811127	-0.12868145	0.65984216	1.385617	0.20263599	0.6000698	1.4320657	0.036721517	0.56856839	1.0199852	-0.18876113	0.51352012	1.0603604	0.29022022	0.77150627	0.84296465	-0.18113573	0.6198717	0.81041445	0.32457001
309	1.232	0.19461228	0.058156898	-0.010105363	1.0060398	0.039532942	0.071304481	0.14621779	0.20048994	-0.073386533	0.8563948	0.052322654	0.10857848	0.18284004	0.19630248	0.016331098	0.86196238	0.092281732	0.017167494	0.082526984	0.23911228	-0.026565818	0.78804093	0.031425024	0.060962526	0.49536963	0.43444283	-0.12041128	0.87180679	0.51107054	0.16433704	0.51036496	0.41774885	0.0034250478	0.85216575	0.49832451	0.040017809	0.58911389	0.83170925	-0.13495593	0.6581634	0.85539035	0.23156365	0.69273882	0.91446164	-0.093226444	0.72426381	0.9421303	0.144404	0.54134029	0.97769301	0.044930127	0.68218259	1.3816429	-0.12851776	0.66690557	1.3859956	0.20280382	0.60685244	1.4324596	0.036961869	0.57429688	1.0210444	-0.1884974	0.52117418	1.0603992	0.29108185	0.77552236	0.84213138	-0.1816517	0.62797876	0.81064959	0.32449832
310	1.236	0.19935399	0.060773314	-0.011354257	1.0060695	0.039457394	0.071287532	0.15497558	0.20489862	-0.074308088	0.85642093	0.052244768	0.10861806	0.19122806	0.19998437	0.015559077	0.86221645	0.09217134	0.017032734	0.092103171	0.24520004	-0.027823081	0.78804422	0.031417338	0.060890248	0.50688341	0.43306225	-0.12107381	0.87689582	0.51053222	0.16463149	0.52221954	0.41612292	0.0029040219	0.85767396	0.49816716	0.039855326	0.59583167	0.83148995	-0.13465059	0.66441641	0.85598191	0.23192473	0.69891677	0.91492637	-0.092646347	0.73085918	0.94282189	0.14488648	0.54773998	0.97813749	0.045319838	0.68891546	1.3821682	-0.12839367	0.67391242	1.3864354	0.20295319	0.61355309	1.4329266	0.037213152	0.57999103	1.0221166	-0.18825897	0.528635	1.0605013	0.29171388	0.77948688	0.84134428	-0.18219573	0.63613071	0.81095828	0.32440227
311	1.24	0.20485558	0.06361321	-0.012660663	1.00607	0.039396811	0.071245713	0.16400045	0.20923252	-0.075145166	0.85643957	0.052203943	0.10866871	0.19989376	0.20369567	0.014880972	0.86241372	0.092054867	0.01691849	0.10191733	0.25106537	-0.028948651	0.78802624	0.031431068	0.060840582	0.51855773	0.43175196	-0.12172187	0.88171587	0.50990724	0.16499648	0.53390261	0.41481167	0.0025132918	0.86302502	0.49787954	0.039705499	0.60236691	0.83135972	-0.13430199	0.67077367	0.85652859	0.23225115	0.70501391	0.91546113	-0.092152782	0.73739494	0.94348736	0.14531076	0.55413742	0.97870113	0.045622001	0.69558007	1.3826977	-0.12826565	0.68086385	1.3869341	0.203084	0.62015089	1.4334768	0.037480454	0.58563794	1.023196	-0.18804798	0.53595473	1.0606492	0.29215013	0.78339865	0.84059779	-0.18275854	0.64433592	0.81133848	0.32428588
